<svg width="165" height="64" viewBox="0 0 165 64" fill="none" xmlns="http://www.w3.org/2000/svg">
<path d="M29.9527 14.0526C7.13946 14.0526 1.21309 5.96328 1.00571 1.48383V37.9825C1.00571 57.1263 20.3037 62.6374 29.9527 63H136.931C146.16 62.2749 164.493 56.2561 163.99 37.9825C163.486 19.7088 145.741 14.4152 136.931 14.0526H29.9527Z" fill="#BABABA"/>
<path d="M29.9527 14.0526C53.6137 14.0526 111.13 14.0526 136.931 14.0526M29.9527 14.0526C7.13946 14.0526 1.21309 5.96328 1.00571 1.48383M29.9527 14.0526H136.931M136.931 14.0526C145.741 14.4152 163.486 19.7088 163.99 37.9825C164.493 56.2561 146.16 62.2749 136.931 63H29.9527C20.3037 62.6374 1.00571 57.1263 1.00571 37.9825M1.00571 37.9825V1.48383M1.00571 37.9825C1.00571 19.5004 1.00571 6.29016 1.00571 1.48383M1.00571 1.48383C1.00571 1.31173 1.00571 1.15041 1.00571 1C0.998193 1.15589 0.998002 1.31737 1.00571 1.48383Z" stroke="#BABABA"/>
<path d="M42.2104 32.3027C42.6792 32.7715 43.0405 33.3525 43.2944 34.0459C43.5483 34.7393 43.6753 35.5596 43.6753 36.5068C43.6753 37.3467 43.5459 38.1206 43.2871 38.8286C43.0332 39.5317 42.6646 40.1348 42.1812 40.6377C41.6831 41.1553 41.0996 41.5459 40.4307 41.8096C39.7666 42.0684 39.0366 42.1978 38.2407 42.1978C37.5522 42.1978 36.8979 42.1318 36.2778 42C35.6577 41.8682 35.1353 41.7119 34.7104 41.5312V39.9272H34.8276C35.2231 40.2446 35.7212 40.4985 36.3218 40.689C36.9272 40.8745 37.5742 40.9673 38.2627 40.9673C38.8633 40.9673 39.4126 40.8623 39.9106 40.6523C40.4087 40.4375 40.8237 40.147 41.1558 39.7808C41.5073 39.3901 41.771 38.9507 41.9468 38.4624C42.1274 37.9692 42.2178 37.4102 42.2178 36.7852H36.2632V35.5181H42.1445C42.0762 34.937 41.9297 34.4341 41.7051 34.0093C41.4805 33.5796 41.1948 33.2256 40.8481 32.9473C40.5015 32.6689 40.1084 32.4639 39.6689 32.332C39.2295 32.1953 38.7607 32.127 38.2627 32.127C37.5938 32.127 36.9663 32.2222 36.3804 32.4126C35.7944 32.5981 35.2891 32.8545 34.8643 33.1816H34.7397V31.5703C35.1938 31.3799 35.731 31.2212 36.3511 31.0942C36.9712 30.9624 37.606 30.8965 38.2554 30.8965C39.0952 30.8965 39.8447 31.0137 40.5039 31.248C41.168 31.4824 41.7368 31.834 42.2104 32.3027ZM51.8857 35.0273H48.9268V42H47.5498V35.0273H44.5908V33.8188H51.8857V35.0273ZM60.2866 37.9131C60.2866 39.2461 59.9448 40.2983 59.2612 41.0698C58.5776 41.8413 57.6621 42.2271 56.5146 42.2271C55.3574 42.2271 54.437 41.8413 53.7534 41.0698C53.0747 40.2983 52.7354 39.2461 52.7354 37.9131C52.7354 36.5801 53.0747 35.5278 53.7534 34.7563C54.437 33.98 55.3574 33.5918 56.5146 33.5918C57.6621 33.5918 58.5776 33.98 59.2612 34.7563C59.9448 35.5278 60.2866 36.5801 60.2866 37.9131ZM58.8657 37.9131C58.8657 36.8535 58.6582 36.0674 58.2432 35.5547C57.8281 35.0371 57.252 34.7783 56.5146 34.7783C55.7676 34.7783 55.1865 35.0371 54.7715 35.5547C54.3613 36.0674 54.1562 36.8535 54.1562 37.9131C54.1562 38.9385 54.3638 39.7173 54.7788 40.2495C55.1938 40.7769 55.7725 41.0405 56.5146 41.0405C57.2471 41.0405 57.8208 40.7793 58.2358 40.2568C58.6558 39.7295 58.8657 38.9482 58.8657 37.9131ZM74.5469 42H73.1699V35.0054H69.0757V42H67.6987V33.8188H74.5469V42ZM84.2368 37.9131C84.2368 39.2461 83.895 40.2983 83.2114 41.0698C82.5278 41.8413 81.6123 42.2271 80.4648 42.2271C79.3076 42.2271 78.3872 41.8413 77.7036 41.0698C77.0249 40.2983 76.6855 39.2461 76.6855 37.9131C76.6855 36.5801 77.0249 35.5278 77.7036 34.7563C78.3872 33.98 79.3076 33.5918 80.4648 33.5918C81.6123 33.5918 82.5278 33.98 83.2114 34.7563C83.895 35.5278 84.2368 36.5801 84.2368 37.9131ZM82.8159 37.9131C82.8159 36.8535 82.6084 36.0674 82.1934 35.5547C81.7783 35.0371 81.2021 34.7783 80.4648 34.7783C79.7178 34.7783 79.1367 35.0371 78.7217 35.5547C78.3115 36.0674 78.1064 36.8535 78.1064 37.9131C78.1064 38.9385 78.314 39.7173 78.729 40.2495C79.144 40.7769 79.7227 41.0405 80.4648 41.0405C81.1973 41.0405 81.771 40.7793 82.186 40.2568C82.606 39.7295 82.8159 38.9482 82.8159 37.9131ZM92.9746 42H91.5977V34.9761H88.5435C88.5288 35.3813 88.5142 35.772 88.4995 36.1479C88.4849 36.5239 88.4702 36.8633 88.4556 37.166C88.4214 37.9814 88.3652 38.6333 88.2871 39.1216C88.209 39.605 88.1064 40.0078 87.9795 40.3301C87.8623 40.6328 87.7305 40.8794 87.584 41.0698C87.4424 41.2554 87.2886 41.4238 87.1226 41.5752C86.9565 41.7217 86.771 41.8315 86.5659 41.9048C86.3657 41.978 86.146 42.0146 85.9067 42.0146C85.8237 42.0146 85.7017 42.0122 85.5405 42.0073C85.3843 42.0024 85.2817 42 85.2329 42V40.7988H85.3062C85.3452 40.7988 85.4014 40.8013 85.4746 40.8062C85.5479 40.811 85.6089 40.8135 85.6577 40.8135C85.7749 40.8135 85.8945 40.7964 86.0166 40.7622C86.1436 40.728 86.251 40.6646 86.3389 40.5718C86.5879 40.3276 86.7881 39.915 86.9395 39.334C87.0908 38.7529 87.1909 37.9131 87.2397 36.8145C87.2593 36.4141 87.2764 35.9404 87.291 35.3936C87.3105 34.8418 87.3276 34.3169 87.3423 33.8188H92.9746V42ZM102.54 38.0522H96.5122C96.5122 38.5552 96.5879 38.9946 96.7393 39.3706C96.8906 39.7417 97.0981 40.0469 97.3618 40.2861C97.6157 40.5205 97.916 40.6963 98.2627 40.8135C98.6143 40.9307 99 40.9893 99.4199 40.9893C99.9766 40.9893 100.536 40.8794 101.097 40.6597C101.664 40.4351 102.066 40.2153 102.306 40.0005H102.379V41.502C101.915 41.6973 101.441 41.8608 100.958 41.9927C100.475 42.1245 99.9668 42.1904 99.4346 42.1904C98.0771 42.1904 97.0176 41.8242 96.2559 41.0918C95.4941 40.3545 95.1133 39.3096 95.1133 37.957C95.1133 36.6191 95.4771 35.5571 96.2046 34.771C96.937 33.9849 97.8989 33.5918 99.0903 33.5918C100.194 33.5918 101.043 33.9141 101.639 34.5586C102.24 35.2031 102.54 36.1187 102.54 37.3052V38.0522ZM101.2 36.9976C101.195 36.2749 101.012 35.7158 100.65 35.3203C100.294 34.9248 99.7495 34.7271 99.0171 34.7271C98.2798 34.7271 97.6914 34.9443 97.252 35.3789C96.8174 35.8135 96.5708 36.353 96.5122 36.9976H101.2ZM110.318 39.7075C110.318 40.1665 110.211 40.5547 109.996 40.8721C109.786 41.1895 109.515 41.4458 109.183 41.6411C108.851 41.8315 108.485 41.9707 108.084 42.0586C107.684 42.1465 107.284 42.1904 106.883 42.1904C106.317 42.1904 105.777 42.1367 105.265 42.0293C104.752 41.9219 104.247 41.7559 103.749 41.5312V40.0225H103.844C104.2 40.335 104.654 40.5767 105.206 40.7476C105.758 40.9185 106.292 41.0039 106.81 41.0039C107.054 41.0039 107.306 40.9819 107.564 40.938C107.823 40.8892 108.048 40.8135 108.238 40.7109C108.443 40.5938 108.607 40.4546 108.729 40.2935C108.851 40.1274 108.912 39.9028 108.912 39.6196C108.912 39.3267 108.851 39.0923 108.729 38.9165C108.612 38.7407 108.451 38.6089 108.246 38.521C108.045 38.4331 107.804 38.3794 107.521 38.3599C107.237 38.3403 106.979 38.3306 106.744 38.3306H105.55V37.144H106.378C106.573 37.144 106.827 37.1367 107.14 37.1221C107.457 37.1074 107.713 37.0684 107.909 37.0049C108.163 36.9219 108.363 36.8047 108.509 36.6533C108.661 36.502 108.736 36.2603 108.736 35.9282C108.736 35.6987 108.678 35.5107 108.561 35.3643C108.443 35.2129 108.297 35.0957 108.121 35.0127C107.94 34.9297 107.738 34.8735 107.513 34.8442C107.293 34.8149 107.098 34.8003 106.927 34.8003C106.429 34.8003 105.938 34.8687 105.455 35.0054C104.977 35.1372 104.574 35.3301 104.247 35.584H104.151V34.0679C104.557 33.936 104.991 33.8286 105.455 33.7456C105.919 33.6626 106.383 33.6211 106.847 33.6211C107.228 33.6211 107.606 33.6553 107.982 33.7236C108.363 33.792 108.717 33.9092 109.044 34.0752C109.366 34.2412 109.63 34.4683 109.835 34.7563C110.04 35.0396 110.143 35.3911 110.143 35.811C110.143 36.2407 110.008 36.6191 109.74 36.9463C109.476 37.2686 109.12 37.5005 108.67 37.6421V37.6934C109.173 37.8154 109.574 38.0449 109.872 38.3818C110.169 38.7139 110.318 39.1558 110.318 39.7075ZM119.342 42H117.965V38.3159H113.871V42H112.494V33.8188H113.871V37.1294H117.965V33.8188H119.342V42ZM129.032 37.9131C129.032 39.2461 128.69 40.2983 128.006 41.0698C127.323 41.8413 126.407 42.2271 125.26 42.2271C124.103 42.2271 123.182 41.8413 122.499 41.0698C121.82 40.2983 121.48 39.2461 121.48 37.9131C121.48 36.5801 121.82 35.5278 122.499 34.7563C123.182 33.98 124.103 33.5918 125.26 33.5918C126.407 33.5918 127.323 33.98 128.006 34.7563C128.69 35.5278 129.032 36.5801 129.032 37.9131ZM127.611 37.9131C127.611 36.8535 127.403 36.0674 126.988 35.5547C126.573 35.0371 125.997 34.7783 125.26 34.7783C124.513 34.7783 123.932 35.0371 123.517 35.5547C123.106 36.0674 122.901 36.8535 122.901 37.9131C122.901 38.9385 123.109 39.7173 123.524 40.2495C123.939 40.7769 124.518 41.0405 125.26 41.0405C125.992 41.0405 126.566 40.7793 126.981 40.2568C127.401 39.7295 127.611 38.9482 127.611 37.9131Z" fill="white"/>
</svg>
