<svg width="283" height="87" viewBox="0 0 283 87" fill="none" xmlns="http://www.w3.org/2000/svg">
<path d="M11.9335 43.125H37.1335V52.875H11.9335V43.125ZM12.8335 72H0.683496V19.5H40.3585V29.25H12.8335V72ZM47.7589 72V16.35H59.4589V72H47.7589ZM70.3175 72V16.35H82.0175V72H70.3175ZM109.901 72.6C106.551 72.6 103.551 71.95 100.901 70.65C98.3011 69.35 96.2761 67.375 94.8261 64.725C93.3761 62.025 92.6511 58.6 92.6511 54.45V31.65H104.351V52.725C104.351 56.075 105.051 58.55 106.451 60.15C107.901 61.7 109.926 62.475 112.526 62.475C114.326 62.475 115.926 62.1 117.326 61.35C118.726 60.55 119.826 59.35 120.626 57.75C121.426 56.1 121.826 54.05 121.826 51.6V31.65H133.526V72H122.426V60.9L124.451 64.125C123.101 66.925 121.101 69.05 118.451 70.5C115.851 71.9 113.001 72.6 109.901 72.6ZM168.215 72.6C164.815 72.6 161.84 71.85 159.29 70.35C156.74 68.85 154.74 66.575 153.29 63.525C151.89 60.425 151.19 56.525 151.19 51.825C151.19 47.075 151.865 43.175 153.215 40.125C154.565 37.075 156.515 34.8 159.065 33.3C161.615 31.8 164.665 31.05 168.215 31.05C172.015 31.05 175.415 31.925 178.415 33.675C181.465 35.375 183.865 37.775 185.615 40.875C187.415 43.975 188.315 47.625 188.315 51.825C188.315 56.075 187.415 59.75 185.615 62.85C183.865 65.95 181.465 68.35 178.415 70.05C175.415 71.75 172.015 72.6 168.215 72.6ZM144.365 86.55V31.65H155.54V39.9L155.315 51.9L156.065 63.825V86.55H144.365ZM166.19 63C168.14 63 169.865 62.55 171.365 61.65C172.915 60.75 174.14 59.475 175.04 57.825C175.99 56.125 176.465 54.125 176.465 51.825C176.465 49.475 175.99 47.475 175.04 45.825C174.14 44.175 172.915 42.9 171.365 42C169.865 41.1 168.14 40.65 166.19 40.65C164.24 40.65 162.49 41.1 160.94 42C159.39 42.9 158.165 44.175 157.265 45.825C156.365 47.475 155.915 49.475 155.915 51.825C155.915 54.125 156.365 56.125 157.265 57.825C158.165 59.475 159.39 60.75 160.94 61.65C162.49 62.55 164.24 63 166.19 63ZM219.998 72.6C216.598 72.6 213.623 71.85 211.073 70.35C208.523 68.85 206.523 66.575 205.073 63.525C203.673 60.425 202.973 56.525 202.973 51.825C202.973 47.075 203.648 43.175 204.998 40.125C206.348 37.075 208.298 34.8 210.848 33.3C213.398 31.8 216.448 31.05 219.998 31.05C223.798 31.05 227.198 31.925 230.198 33.675C233.248 35.375 235.648 37.775 237.398 40.875C239.198 43.975 240.098 47.625 240.098 51.825C240.098 56.075 239.198 59.75 237.398 62.85C235.648 65.95 233.248 68.35 230.198 70.05C227.198 71.75 223.798 72.6 219.998 72.6ZM196.148 86.55V31.65H207.323V39.9L207.098 51.9L207.848 63.825V86.55H196.148ZM217.973 63C219.923 63 221.648 62.55 223.148 61.65C224.698 60.75 225.923 59.475 226.823 57.825C227.773 56.125 228.248 54.125 228.248 51.825C228.248 49.475 227.773 47.475 226.823 45.825C225.923 44.175 224.698 42.9 223.148 42C221.648 41.1 219.923 40.65 217.973 40.65C216.023 40.65 214.273 41.1 212.723 42C211.173 42.9 209.948 44.175 209.048 45.825C208.148 47.475 207.698 49.475 207.698 51.825C207.698 54.125 208.148 56.125 209.048 57.825C209.948 59.475 211.173 60.75 212.723 61.65C214.273 62.55 216.023 63 217.973 63ZM261.505 72.6C258.055 72.6 254.73 72.2 251.53 71.4C248.38 70.55 245.88 69.5 244.03 68.25L247.93 59.85C249.78 61 251.955 61.95 254.455 62.7C257.005 63.4 259.505 63.75 261.955 63.75C264.655 63.75 266.555 63.425 267.655 62.775C268.805 62.125 269.38 61.225 269.38 60.075C269.38 59.125 268.93 58.425 268.03 57.975C267.18 57.475 266.03 57.1 264.58 56.85C263.13 56.6 261.53 56.35 259.78 56.1C258.08 55.85 256.355 55.525 254.605 55.125C252.855 54.675 251.255 54.025 249.805 53.175C248.355 52.325 247.18 51.175 246.28 49.725C245.43 48.275 245.005 46.4 245.005 44.1C245.005 41.55 245.73 39.3 247.18 37.35C248.68 35.4 250.83 33.875 253.63 32.775C256.43 31.625 259.78 31.05 263.68 31.05C266.43 31.05 269.23 31.35 272.08 31.95C274.93 32.55 277.305 33.425 279.205 34.575L275.305 42.9C273.355 41.75 271.38 40.975 269.38 40.575C267.43 40.125 265.53 39.9 263.68 39.9C261.08 39.9 259.18 40.25 257.98 40.95C256.78 41.65 256.18 42.55 256.18 43.65C256.18 44.65 256.605 45.4 257.455 45.9C258.355 46.4 259.53 46.8 260.98 47.1C262.43 47.4 264.005 47.675 265.705 47.925C267.455 48.125 269.205 48.45 270.955 48.9C272.705 49.35 274.28 50 275.68 50.85C277.13 51.65 278.305 52.775 279.205 54.225C280.105 55.625 280.555 57.475 280.555 59.775C280.555 62.275 279.805 64.5 278.305 66.45C276.805 68.35 274.63 69.85 271.78 70.95C268.98 72.05 265.555 72.6 261.505 72.6Z" fill="white"/>
</svg>
